<?xml version="1.0" encoding="UTF-8" standalone="no"?>
<!DOCTYPE svg PUBLIC "-//W3C//DTD SVG 1.1//EN" "http://www.w3.org/Graphics/SVG/1.1/DTD/svg11.dtd">
<svg width="100%" height="100%" viewBox="0 0 2400 2400" version="1.1" xmlns="http://www.w3.org/2000/svg" xmlns:xlink="http://www.w3.org/1999/xlink" xml:space="preserve" xmlns:serif="http://www.serif.com/" style="fill-rule:evenodd;clip-rule:evenodd;stroke-linejoin:round;stroke-miterlimit:2;">
    <g>
        <rect x="0" y="0" width="2400" height="2400" style="fill:white;"/>
        <g transform="matrix(0.547703,0,0,0.547703,489.9,288.987)">
            <g transform="matrix(0.532685,0,0,0.532685,-273.923,1711.53)">
                <text x="812.738px" y="1843.02px" style="font-family:'Kessel205W00-Bold';font-weight:700;font-size:1733.28px;">9<tspan x="1854.44px " y="1843.02px ">6</tspan>34</text>
            </g>
            <g transform="matrix(1.33458,0,0,1.33458,-378.821,-375.381)">
                <g>
                    <g transform="matrix(0.866025,0,0,0.866025,170.038,158.09)">
                        <g transform="matrix(1,0,0,1,-892.28,-1.19371e-12)">
                            <g transform="matrix(1.1533e-16,1.88347,-1.88347,1.1533e-16,5481.02,-1013.52)">
                                <path d="M1164.62,1779.35L1396.73,1913.36L1396.73,2181.38L1164.62,2315.39L932.504,2181.38L932.504,1913.36L1164.62,1779.35Z" style="fill:white;"/>
                            </g>
                            <g transform="matrix(7.83656e-17,1.27981,-1.27981,7.83656e-17,4245.09,-310.484)">
                                <path d="M1164.62,1779.35L1199.6,1781.65L1233.99,1788.49L1267.18,1799.76L1298.63,1815.26L1327.78,1834.74L1354.13,1857.86L1377.25,1884.21L1396.73,1913.36L1412.23,1944.81L1423.5,1978.01L1430.34,2012.39L1432.64,2047.37L1430.34,2082.36L1423.5,2116.74L1412.23,2149.94L1396.73,2181.38L1377.25,2210.53L1354.13,2236.89L1327.78,2260.01L1298.63,2279.49L1267.18,2294.99L1233.99,2306.26L1199.6,2313.1L1164.62,2315.39L1129.63,2313.1L1095.25,2306.26L1062.05,2294.99L1030.61,2279.49L1001.46,2260.01L975.097,2236.89L951.981,2210.53L932.504,2181.38L916.998,2149.94L905.728,2116.74L898.889,2082.36L896.596,2047.37L898.889,2012.39L905.728,1978.01L916.998,1944.81L932.504,1913.36L951.981,1884.21L975.097,1857.86L1001.46,1834.74L1030.61,1815.26L1062.05,1799.76L1095.25,1788.49L1129.63,1781.65L1164.62,1779.35Z" style="fill:white;"/>
                            </g>
                            <g transform="matrix(0.906405,0,0,0.906405,152.077,110.442)">
                                <circle cx="1624.85" cy="1180" r="238.886" style="fill:white;"/>
                            </g>
                        </g>
                        <g>
                            <g transform="matrix(1.2489,0,0,0.533543,-223.958,500.316)">
                                <rect x="503.356" y="938.118" width="525.074" height="261.882"/>
                            </g>
                            <g transform="matrix(7.64732e-17,1.2489,-0.533543,3.26701e-17,1302.96,114.181)">
                                <rect x="503.356" y="938.118" width="525.074" height="261.882"/>
                            </g>
                            <g transform="matrix(1.2489,0,0,0.533543,-223.958,976.925)">
                                <rect x="503.356" y="938.118" width="525.074" height="261.882"/>
                            </g>
                        </g>
                    </g>
                    <g transform="matrix(0.866025,0,0,0.866025,235.632,158.09)">
                        <g transform="matrix(1.1533e-16,1.88347,-1.88347,1.1533e-16,5481.02,-1013.52)">
                            <path d="M1164.62,1779.35L1396.73,1913.36L1396.73,2181.38L1164.62,2315.39L932.504,2181.38L932.504,1913.36L1164.62,1779.35Z"/>
                        </g>
                        <g transform="matrix(1.57972,0,0,1.57972,-718.226,-297.953)">
                            <circle cx="1483.23" cy="935.582" r="217.137" style="fill:white;"/>
                        </g>
                        <g transform="matrix(0.906405,0,0,0.906405,152.077,110.442)">
                            <circle cx="1624.85" cy="1180" r="238.886"/>
                        </g>
                    </g>
                </g>
            </g>
        </g>
    </g>
    <g>
        <rect x="0" y="0" width="2400" height="2400"/>
        <g transform="matrix(0.547703,0,0,0.547703,489.9,288.987)">
            <g transform="matrix(0.532685,0,0,0.532685,-273.923,1711.53)">
                <text x="812.738px" y="1843.02px" style="font-family:'Kessel205W00-Bold';font-weight:700;font-size:1733.28px;fill:white;">9<tspan x="1854.44px " y="1843.02px ">6</tspan>34</text>
            </g>
            <g transform="matrix(1.33458,0,0,1.33458,-378.821,-375.381)">
                <g>
                    <g transform="matrix(0.866025,0,0,0.866025,170.038,158.09)">
                        <g transform="matrix(1,0,0,1,-892.28,-1.19371e-12)">
                            <g transform="matrix(1.1533e-16,1.88347,-1.88347,1.1533e-16,5481.02,-1013.52)">
                                <path d="M1164.62,1779.35L1396.73,1913.36L1396.73,2181.38L1164.62,2315.39L932.504,2181.38L932.504,1913.36L1164.62,1779.35Z"/>
                            </g>
                            <g transform="matrix(7.83656e-17,1.27981,-1.27981,7.83656e-17,4245.09,-310.484)">
                                <path d="M1164.62,1779.35L1199.6,1781.65L1233.99,1788.49L1267.18,1799.76L1298.63,1815.26L1327.78,1834.74L1354.13,1857.86L1377.25,1884.21L1396.73,1913.36L1412.23,1944.81L1423.5,1978.01L1430.34,2012.39L1432.64,2047.37L1430.34,2082.36L1423.5,2116.74L1412.23,2149.94L1396.73,2181.38L1377.25,2210.53L1354.13,2236.89L1327.78,2260.01L1298.63,2279.49L1267.18,2294.99L1233.99,2306.26L1199.6,2313.1L1164.62,2315.39L1129.63,2313.1L1095.25,2306.26L1062.05,2294.99L1030.61,2279.49L1001.46,2260.01L975.097,2236.89L951.981,2210.53L932.504,2181.38L916.998,2149.94L905.728,2116.74L898.889,2082.36L896.596,2047.37L898.889,2012.39L905.728,1978.01L916.998,1944.81L932.504,1913.36L951.981,1884.21L975.097,1857.86L1001.46,1834.74L1030.61,1815.26L1062.05,1799.76L1095.25,1788.49L1129.63,1781.65L1164.62,1779.35Z"/>
                            </g>
                            <g transform="matrix(0.906405,0,0,0.906405,152.077,110.442)">
                                <circle cx="1624.85" cy="1180" r="238.886"/>
                            </g>
                        </g>
                        <g>
                            <g transform="matrix(1.2489,0,0,0.533543,-223.958,500.316)">
                                <rect x="503.356" y="938.118" width="525.074" height="261.882" style="fill:white;"/>
                            </g>
                            <g transform="matrix(7.64732e-17,1.2489,-0.533543,3.26701e-17,1302.96,114.181)">
                                <rect x="503.356" y="938.118" width="525.074" height="261.882" style="fill:white;"/>
                            </g>
                            <g transform="matrix(1.2489,0,0,0.533543,-223.958,976.925)">
                                <rect x="503.356" y="938.118" width="525.074" height="261.882" style="fill:white;"/>
                            </g>
                        </g>
                    </g>
                    <g transform="matrix(0.866025,0,0,0.866025,235.632,158.09)">
                        <g transform="matrix(1.1533e-16,1.88347,-1.88347,1.1533e-16,5481.02,-1013.52)">
                            <path d="M1164.62,1779.35L1396.73,1913.36L1396.73,2181.38L1164.62,2315.39L932.504,2181.38L932.504,1913.36L1164.62,1779.35Z" style="fill:white;"/>
                        </g>
                        <g transform="matrix(1.57972,0,0,1.57972,-718.226,-297.953)">
                            <circle cx="1483.23" cy="935.582" r="217.137"/>
                        </g>
                        <g transform="matrix(0.906405,0,0,0.906405,152.077,110.442)">
                            <circle cx="1624.85" cy="1180" r="238.886" style="fill:white;"/>
                        </g>
                    </g>
                </g>
            </g>
        </g>
    </g>
</svg>
